<svg width="24" height="24" viewBox="0 0 24 24" fill="none" xmlns="http://www.w3.org/2000/svg">
  <defs>
    <linearGradient id="instGrad" x1="0%" y1="100%" x2="100%" y2="0%">
      <stop offset="0%" style="stop-color:#feda75;stop-opacity:1" />
      <stop offset="5%" style="stop-color:#fa7e1e;stop-opacity:1" />
      <stop offset="45%" style="stop-color:#d92e7f;stop-opacity:1" />
      <stop offset="60%" style="stop-color:#9b36b7;stop-opacity:1" />
      <stop offset="90%" style="stop-color:#515bd4;stop-opacity:1" />
    </linearGradient>
  </defs>
  <rect width="24" height="24" rx="5.5" fill="url(#instGrad)"/>
  <path d="M12 6c-1.657 0-1.864.007-2.512.036-.649.03-1.092.133-1.476.284-.4.155-.741.364-1.065.689-.325.324-.534.665-.689 1.065-.151.384-.254.827-.284 1.476C6.007 10.136 6 10.343 6 12c0 1.657.007 1.864.036 2.512.03.649.133 1.092.284 1.476.155.4.364.741.689 1.065.324.325.665.534 1.065.689.384.151.827.254 1.476.284.648.029.855.036 2.512.036 1.657 0 1.864-.007 2.512-.036.649-.03 1.092-.133 1.476-.284.4-.155.741-.364 1.065-.689.325-.324.534-.665.689-1.065.151-.384.254-.827.284-1.476.029-.648.036-.855.036-2.512 0-1.657-.007-1.864-.036-2.512-.03-.649-.133-1.092-.284-1.476-.155-.4-.364-.741-.689-1.065-.324-.325-.665-.534-1.065-.689-.384-.151-.827-.254-1.476-.284-.648-.029-.855-.036-2.512-.036zm0 2.16c1.469 0 2.66 1.191 2.66 2.66s-1.191 2.66-2.66 2.66-2.66-1.191-2.66-2.66 1.191-2.66 2.66-2.66zm0 4.39c.958 0 1.73-.772 1.73-1.73s-.772-1.73-1.73-1.73-1.73.772-1.73 1.73.772 1.73 1.73 1.73zm3.406-4.844c.344 0 .622-.278.622-.622s-.278-.622-.622-.622-.622.278-.622.622.278.622.622.622z" fill="white"/>
</svg>
